<?xml version="1.0" encoding="UTF-8" standalone="no"?>
<!-- Created with Inkscape (http://www.inkscape.org/) -->

<svg
   width="360"
   height="360"
   viewBox="0 0 95.25 95.25"
   version="1.1"
   id="svg5"
   inkscape:version="1.1 (c68e22c387, 2021-05-23)"
   sodipodi:docname="splash_logo.svg"
   xmlns:inkscape="http://www.inkscape.org/namespaces/inkscape"
   xmlns:sodipodi="http://sodipodi.sourceforge.net/DTD/sodipodi-0.dtd"
   xmlns="http://www.w3.org/2000/svg"
   xmlns:svg="http://www.w3.org/2000/svg">
  <sodipodi:namedview
     id="namedview7"
     pagecolor="#505050"
     bordercolor="#ffffff"
     borderopacity="1"
     inkscape:pageshadow="0"
     inkscape:pageopacity="0"
     inkscape:pagecheckerboard="1"
     inkscape:document-units="px"
     showgrid="false"
     inkscape:zoom="0.75575672"
     inkscape:cx="193.84545"
     inkscape:cy="279.85196"
     inkscape:window-width="1366"
     inkscape:window-height="705"
     inkscape:window-x="-8"
     inkscape:window-y="-8"
     inkscape:window-maximized="1"
     inkscape:current-layer="layer2"
     width="360px" />
  <defs
     id="defs2" />
  <g
     inkscape:groupmode="layer"
     id="layer2"
     inkscape:label="Capa 1"
     style="opacity:1">
    <path
       id="text28987"
       style="font-style:normal;font-variant:normal;font-weight:normal;font-stretch:normal;font-size:111.934px;line-height:1.25;font-family:'Eras Demi ITC';-inkscape-font-specification:'Eras Demi ITC, Normal';font-variant-ligatures:normal;font-variant-caps:normal;font-variant-numeric:normal;font-variant-east-asian:normal;opacity:1;fill:#333333;fill-opacity:1;stroke:none;stroke-width:2.79837"
       d="m 0,0 c 7.5343483,31.494034 14.797775,63.243729 21.789881,95.249483 2.939539,-0.09304 5.579197,-0.139528 7.919413,-0.139528 2.226059,0 4.865717,0.04649 7.919413,0.139528 2.425832,-9.39704 4.994765,-18.631305 7.70599,-27.702703 2.026285,9.071398 3.88122,18.305663 5.565034,27.702703 2.96808,-0.09304 5.593387,-0.139528 7.876521,-0.139528 2.16898,0 4.780452,0.04649 7.834148,0.139528 L 70.377612,82.27043 87.2013,26.027868 95.249345,0 C 92.652287,0.09303998 90.440632,0.13952637 88.614131,0.13952637 86.95886,0.13952637 84.761552,0.09303998 82.021807,0 L 79.281935,10.188008 70.934168,40.053887 59.418592,79.967727 C 58.619494,76.664808 57.363732,71.012578 55.65138,63.011139 53.939026,55.009703 52.768861,49.334229 52.141,45.984789 53.796273,39.79763 55.965409,32.075723 58.648096,22.818245 61.359321,13.560767 63.628406,5.954559 65.454915,0 63.200318,0.09303998 61.202375,0.13952637 59.461483,0.13952637 57.948905,0.13952637 55.950962,0.09303998 53.468049,0 51.470305,8.2340385 49.272982,16.561302 46.875688,24.981421 45.248953,16.747382 43.765106,8.4201184 42.423764,0 40.197705,0.09303998 38.071109,0.13952637 36.044824,0.13952637 34.218315,0.13952637 32.092235,0.09303998 29.666403,0 c 1.512577,6.3732388 3.268083,14.188636 5.265827,23.446114 2.026285,9.257478 3.695676,17.142604 5.00848,23.655402 -0.941795,3.628559 -2.511753,9.257546 -4.709273,16.886825 -2.16898,7.582759 -3.795316,13.09553 -4.879806,16.538008 L 25.342635,57.777869 13.356287,0 C 10.787757,0.09303998 8.5617313,0.13952637 6.6781413,0.13952637 4.9657893,0.13952637 2.7397615,0.09303998 0,0 Z" />
  </g>
  <g
     inkscape:groupmode="layer"
     id="layer3"
     inkscape:label="Capa 2"
     style="opacity:1">
    <path
       id="text25907"
       style="opacity:1;font-style:normal;font-variant:normal;font-weight:normal;font-stretch:normal;font-size:111.934px;line-height:1.25;font-family:'Eras Demi ITC';-inkscape-font-specification:'Eras Demi ITC, Normal';font-variant-ligatures:normal;font-variant-caps:normal;font-variant-numeric:normal;font-variant-east-asian:normal;fill:#666666;fill-opacity:1;stroke:none;stroke-width:10.5766"
       d="M 0 0 C 28.476287 119.03256 55.928615 239.03357 82.355469 360 C 93.465541 359.6485 103.4422 359.47266 112.28711 359.47266 C 120.70055 359.47266 130.67917 359.64839 142.2207 360 C 151.3892 324.48382 161.0966 289.58249 171.34375 255.29688 C 179.00214 289.58249 186.01293 324.48382 192.37695 360 C 203.59488 359.6485 213.51926 359.47266 222.14844 359.47266 C 223.63447 359.47266 225.46471 359.50798 227.06055 359.51953 A 160 160 0 0 1 279.91016 264.42383 L 329.58203 98.375 L 359.99805 0 C 350.18235 0.35164724 341.82328 0.52929688 334.91992 0.52929688 C 328.66376 0.52929688 320.35892 0.35165734 310.00391 0 L 299.64844 38.505859 L 268.09766 151.38477 L 224.57422 302.24219 C 221.55401 289.75872 216.80783 268.39596 210.33594 238.1543 C 203.86406 207.91263 199.44139 186.46203 197.06836 173.80273 C 203.32452 150.41819 211.52282 121.23108 221.66211 86.242188 C 231.90925 51.253298 240.48532 22.505406 247.38867 0 C 238.86735 0.35164724 231.31608 0.52929688 224.73633 0.52929688 C 219.0195 0.52929688 211.47017 0.35165734 202.08594 0 C 194.53541 31.120759 186.22861 62.593889 177.16797 94.417969 C 171.01968 63.297191 165.41144 31.824054 160.3418 0 C 151.92835 0.35164724 143.89278 0.52929688 136.23438 0.52929688 C 129.33103 0.52929688 121.2935 0.35165734 112.125 0 C 117.84183 24.087818 124.47682 53.626334 132.02734 88.615234 C 139.68574 123.60414 145.99525 153.40618 150.95703 178.02148 C 147.39749 191.73573 141.46574 213.01063 133.16016 241.8457 C 124.96243 270.50495 118.8137 291.34061 114.71484 304.35156 L 95.785156 218.37305 L 50.480469 0 C 40.772643 0.35164724 32.359307 0.52929688 25.240234 0.52929688 C 18.768349 0.52929688 10.355014 0.35165734 0 0 z "
       transform="scale(0.26458333)" />
  </g>
  <g
     inkscape:groupmode="layer"
     id="layer4"
     inkscape:label="Capa 3">
    <path
       id="text19732"
       style="font-style:normal;font-variant:normal;font-weight:normal;font-stretch:normal;font-size:111.934px;line-height:1.25;font-family:'Eras Demi ITC';-inkscape-font-specification:'Eras Demi ITC, Normal';font-variant-ligatures:normal;font-variant-caps:normal;font-variant-numeric:normal;font-variant-east-asian:normal;opacity:1;fill:#999999;fill-opacity:1;stroke:none;stroke-width:2.79837"
       d="M 2.3666667e-7,0 C 7.5343519,31.494034 14.797778,63.243729 21.789885,95.249483 c 2.939538,-0.09304 5.579197,-0.139528 7.919413,-0.139528 2.226058,0 4.865716,0.04649 7.919413,0.139528 2.425832,-9.39704 4.994764,-18.631305 7.705989,-27.702703 2.026285,9.071398 3.881221,18.305663 5.565034,27.702703 1.220796,-0.03827 2.346093,-0.06378 3.450953,-0.0863 a 42.333333,42.333333 0 0 1 4.47208,-17.734319 C 58.042045,74.044687 56.991223,69.271916 55.651384,63.011139 53.93903,55.009703 52.768865,49.334229 52.141003,45.984789 53.796276,39.79763 55.965412,32.075723 58.6481,22.818245 61.359325,13.560767 63.62841,5.954559 65.454918,0 63.200322,0.09303998 61.202379,0.13952637 59.461487,0.13952637 57.948909,0.13952637 55.950966,0.09303998 53.468053,0 51.470308,8.2340383 49.272986,16.561302 46.875692,24.981421 45.248957,16.747382 43.76511,8.4201184 42.423768,0 c -2.226059,0.09303998 -4.352655,0.13952637 -6.37894,0.13952637 -1.826509,0 -3.95259,-0.04648639 -6.378422,-0.13952637 1.512578,6.3732388 3.268083,14.188636 5.265828,23.446114 2.026285,9.257478 3.695676,17.142604 5.00848,23.655402 -0.941795,3.628559 -2.511753,9.257546 -4.709274,16.886825 -2.16898,7.582759 -3.795315,13.09553 -4.879805,16.538008 L 25.342639,57.777869 13.356291,0 C 10.787762,0.09303998 8.5617332,0.13952637 6.6781452,0.13952637 4.9657926,0.13952637 2.7397644,0.09303998 2.3666667e-7,0 Z M 82.021867,0 79.281982,10.188008 70.934172,40.053887 61.346127,73.286481 A 42.333333,42.333333 0 0 1 77.385973,58.840335 L 87.201395,26.027868 95.249483,0 C 92.652415,0.09303998 90.440739,0.13952637 88.614228,0.13952637 86.958955,0.13952637 84.76163,0.09303998 82.021867,0 Z" />
  </g>
  <g
     inkscape:groupmode="layer"
     id="layer5"
     inkscape:label="Capa 4">
    <path
       id="text16091"
       style="font-style:normal;font-variant:normal;font-weight:normal;font-stretch:normal;font-size:111.934px;line-height:1.25;font-family:'Eras Demi ITC';-inkscape-font-specification:'Eras Demi ITC, Normal';font-variant-ligatures:normal;font-variant-caps:normal;font-variant-numeric:normal;font-variant-east-asian:normal;opacity:1;fill:#cccccc;fill-opacity:1;stroke:none;stroke-width:2.79839"
       d="M 2.3666667e-7,0 C 7.5343516,31.494036 14.797778,63.243726 21.789882,95.249483 c 2.939538,-0.09304 5.579197,-0.139528 7.919413,-0.139528 2.226058,0 4.865716,0.04649 7.919415,0.139528 2.425833,-9.39704 4.994765,-18.631305 7.70599,-27.702703 1.408094,6.303838 2.731757,12.688115 3.974433,19.149219 A 42.333333,42.333333 0 0 1 56.55107,67.184528 C 56.26192,65.848578 55.972686,64.512515 55.651384,63.011139 53.93903,55.0097 52.768865,49.334229 52.141003,45.984789 53.796276,39.79763 55.965412,32.075723 58.6481,22.818245 61.359325,13.560766 63.62841,5.9545592 65.454918,0 63.200322,0.09303999 61.202379,0.13952637 59.461487,0.13952637 57.948909,0.13952637 55.950966,0.09303999 53.468053,0 51.470308,8.2340391 49.272986,16.561301 46.875692,24.981421 45.248957,16.747382 43.76511,8.4201192 42.423768,0 40.197709,0.09303999 38.071112,0.13952637 36.044826,0.13952637 34.218316,0.13952637 32.092235,0.09303999 29.666403,0 c 1.512578,6.3732393 3.268083,14.188635 5.265828,23.446114 2.026286,9.257478 3.695678,17.142604 5.008483,23.655402 -0.941793,3.628562 -2.511755,9.257546 -4.709277,16.886825 -2.16898,7.582759 -3.795315,13.09553 -4.879805,16.538008 L 25.342636,57.777869 13.356291,0 C 10.787762,0.09303999 8.561733,0.13952637 6.6781452,0.13952637 4.9657931,0.13952637 2.7397643,0.09303999 2.3666667e-7,0 Z M 82.021867,0 79.281982,10.188008 70.934172,40.053887 65.916907,57.444039 A 42.333333,42.333333 0 0 1 79.843703,50.624816 L 87.201395,26.027868 95.249483,0 C 92.652415,0.09303999 90.440737,0.13952637 88.614228,0.13952637 86.958955,0.13952637 84.76163,0.09303999 82.021867,0 Z" />
  </g>
  <g
     inkscape:groupmode="layer"
     id="layer6"
     inkscape:label="Capa 5">
    <path
       id="text2388"
       style="font-style:normal;font-variant:normal;font-weight:normal;font-stretch:normal;font-size:111.934px;line-height:1.25;font-family:'Eras Demi ITC';-inkscape-font-specification:'Eras Demi ITC, Normal';font-variant-ligatures:normal;font-variant-caps:normal;font-variant-numeric:normal;font-variant-east-asian:normal;opacity:1;fill:#ffffff;fill-opacity:1;stroke:none;stroke-width:2.79839"
       d="M 2.3666667e-7,0 C 7.5344036,31.494192 14.797747,63.244084 21.789891,95.249999 c 2.939554,-0.09304 5.579182,-0.139526 7.919408,-0.139526 2.226069,0 4.865699,0.04649 7.919411,0.139526 2.425849,-9.397085 4.994749,-18.63126 7.705989,-27.7027 0.319177,1.428908 0.632418,2.863519 0.943093,4.300511 A 42.333563,42.333563 0 0 1 54.554803,57.848147 C 53.432857,52.531499 52.623738,48.557298 52.141514,45.984789 53.796799,39.797601 55.965908,32.075255 58.648606,22.817728 61.359846,13.560204 63.628905,5.9545889 65.455422,0 63.200813,0.09304046 61.202895,0.13952637 59.461994,0.13952637 57.949406,0.13952637 55.951491,0.09304046 53.468565,0 51.470808,8.2340801 49.272996,16.560742 46.875689,24.980904 45.248945,16.746823 43.765115,8.420161 42.423767,0 40.197693,0.09304046 38.071123,0.13952637 36.044827,0.13952637 34.218308,0.13952637 32.092255,0.09304046 29.666408,0 c 1.512585,6.3732708 3.268071,14.188589 5.265825,23.446114 2.026298,9.257526 3.695668,17.14257 5.008481,23.655402 -0.941801,3.628578 -2.51174,9.257509 -4.709274,16.886825 -2.16899,7.582799 -3.795304,13.095512 -4.879804,16.538008 L 25.342644,57.778385 13.356303,0 C 10.78776,0.09304046 8.561754,0.13952637 6.6781532,0.13952637 4.9657891,0.13952637 2.7397843,0.09304046 2.3666667e-7,0 Z M 82.022371,0 79.282486,10.187492 70.934676,40.053368 68.815943,47.39659 A 42.333563,42.333563 0 0 1 81.855456,43.901195 L 87.201899,26.027868 95.249987,0 C 92.652903,0.09304046 90.441254,0.13952637 88.614734,0.13952637 86.959448,0.13952637 84.76215,0.09304046 82.022371,0 Z" />
  </g>
</svg>
