<?xml version="1.0" encoding="UTF-8" standalone="no"?>
<!-- Created with Inkscape (http://www.inkscape.org/) -->

<svg
   width="720"
   height="360"
   viewBox="0 0 190.5 95.25"
   version="1.1"
   id="svg5"
   inkscape:version="1.1 (c68e22c387, 2021-05-23)"
   sodipodi:docname="windroid_banner.svg"
   xmlns:inkscape="http://www.inkscape.org/namespaces/inkscape"
   xmlns:sodipodi="http://sodipodi.sourceforge.net/DTD/sodipodi-0.dtd"
   xmlns="http://www.w3.org/2000/svg"
   xmlns:svg="http://www.w3.org/2000/svg">
  <sodipodi:namedview
     id="namedview7"
     pagecolor="#505050"
     bordercolor="#ffffff"
     borderopacity="1"
     inkscape:pageshadow="0"
     inkscape:pageopacity="0"
     inkscape:pagecheckerboard="1"
     inkscape:document-units="px"
     showgrid="false"
     inkscape:zoom="0.76095916"
     inkscape:cx="365.98548"
     inkscape:cy="176.75062"
     inkscape:window-width="1366"
     inkscape:window-height="705"
     inkscape:window-x="-8"
     inkscape:window-y="-8"
     inkscape:window-maximized="1"
     inkscape:current-layer="layer2"
     width="720px" />
  <defs
     id="defs2" />
  <g
     inkscape:groupmode="layer"
     id="layer2"
     inkscape:label="Capa 1"
     style="opacity:1">
    <rect
       id="rect2076"
       width="190.5"
       height="95.25"
       x="0"
       y="0"
       ry="21.209526"
       style="fill:#0066ff;stroke-width:3.52561" />
  </g>
  <g
     inkscape:groupmode="layer"
     id="layer3"
     inkscape:label="Capa 2"
     style="opacity:1">
    <path
       id="text28987"
       style="opacity:1;font-style:normal;font-variant:normal;font-weight:normal;font-stretch:normal;font-size:111.934px;line-height:1.25;font-family:'Eras Demi ITC';-inkscape-font-specification:'Eras Demi ITC, Normal';font-variant-ligatures:normal;font-variant-caps:normal;font-variant-numeric:normal;font-variant-east-asian:normal;fill:#333333;fill-opacity:1;stroke:none;stroke-width:2.79837"
       d="m 50.270859,0 c 7.534353,31.494034 14.797781,63.243729 21.789887,95.249483 2.939539,-0.09304 5.579197,-0.139528 7.919413,-0.139528 2.226059,0 4.865717,0.04649 7.919413,0.139528 2.425832,-9.39704 4.994765,-18.631305 7.70599,-27.702703 2.026285,9.071398 3.88122,18.305663 5.565038,27.702703 2.9681,-0.09304 5.59342,-0.139528 7.87657,-0.139528 2.16899,0 4.78048,0.04649 7.83419,0.139528 L 120.64859,82.27043 137.47237,26.027868 145.52047,0 c -2.59708,0.09303998 -4.80875,0.13952637 -6.63526,0.13952637 -1.65528,0 -3.8526,-0.04648639 -6.59236,-0.13952637 l -2.73989,10.188008 -8.34781,29.865879 -11.51564,39.91384 c -0.7991,-3.302919 -2.05487,-8.955149 -3.76723,-16.956588 -1.71237,-8.001436 -2.88254,-13.67691 -3.5104,-17.02635 1.65528,-6.187159 3.82443,-13.909066 6.50713,-23.166544 C 111.63025,13.560767 113.89935,5.954559 115.72587,0 113.47126,0.09303998 111.4733,0.13952637 109.7324,0.13952637 108.21981,0.13952637 106.22186,0.09303998 103.73893,0 101.74118,8.2340385 99.543847,16.561302 97.146553,24.981421 95.519818,16.747382 94.035971,8.4201184 92.694629,0 90.46857,0.09303998 88.341974,0.13952637 86.315689,0.13952637 84.48918,0.13952637 82.3631,0.09303998 79.937268,0 c 1.512577,6.3732388 3.268083,14.188636 5.265827,23.446114 2.026285,9.257478 3.695676,17.142604 5.00848,23.655402 -0.941795,3.628559 -2.511753,9.257546 -4.709273,16.886825 -2.16898,7.582759 -3.795316,13.09553 -4.879806,16.538008 L 75.6135,57.777869 63.627152,0 C 61.058622,0.09303998 58.832595,0.13952637 56.949004,0.13952637 55.236651,0.13952637 53.010622,0.09303998 50.270859,0 Z" />
  </g>
  <g
     inkscape:groupmode="layer"
     id="layer4"
     inkscape:label="Capa 3">
    <path
       id="text25907"
       style="font-style:normal;font-variant:normal;font-weight:normal;font-stretch:normal;font-size:111.934px;line-height:1.25;font-family:'Eras Demi ITC';-inkscape-font-specification:'Eras Demi ITC, Normal';font-variant-ligatures:normal;font-variant-caps:normal;font-variant-numeric:normal;font-variant-east-asian:normal;opacity:1;fill:#666666;fill-opacity:1;stroke:none;stroke-width:2.79839"
       d="m 50.270859,0 c 7.534355,31.494031 14.797786,63.244298 21.789891,95.249999 2.939539,-0.093 5.579197,-0.139526 7.919413,-0.139526 2.226056,0 4.866232,0.0465 7.919929,0.139526 2.425832,-9.396989 4.994248,-18.631299 7.705473,-27.7027 2.026283,9.071401 3.881221,18.305711 5.565035,27.7027 2.9681,-0.093 5.59394,-0.139526 7.87709,-0.139526 0.39318,0 0.87743,0.0093 1.29967,0.01241 a 42.333333,42.333333 0 0 1 13.9832,-25.160738 L 137.47299,26.028385 145.52061,0 c -2.59709,0.09304 -4.80878,0.14004313 -6.6353,0.14004313 -1.65528,0 -3.85262,-0.0470005 -6.5924,-0.14004313 l -2.7399,10.188008 -8.34785,29.865879 -11.51565,39.914358 c -0.7991,-3.302918 -2.05487,-8.955148 -3.76723,-16.956587 -1.71236,-8.001442 -2.88253,-13.676913 -3.5104,-17.026353 1.65528,-6.187159 3.82443,-13.909582 6.50713,-23.16706 C 111.63025,13.560768 113.89935,5.9545553 115.72587,0 c -2.25461,0.09304 -4.25256,0.14004313 -5.99346,0.14004313 -1.51259,0 -3.51003,-0.0470005 -5.99295,-0.14004313 C 101.7417,8.234034 99.543851,16.5613 97.146557,24.981421 95.519822,16.747382 94.035975,8.4201142 92.694633,0 90.468574,0.09304 88.342496,0.14004313 86.316211,0.14004313 84.4897,0.14004313 82.363103,0.09304263 79.937271,0 c 1.512578,6.3732351 3.268086,14.188634 5.265828,23.446114 2.026285,9.257481 3.695676,17.142604 5.00848,23.655402 -0.941795,3.628562 -2.511237,9.257546 -4.708755,16.886825 C 83.333841,71.5711 81.70699,77.083869 80.6225,80.526349 L 75.614021,57.777869 63.627156,0 C 61.058627,0.09304 58.832597,0.14004313 56.949008,0.14004313 55.236654,0.14004313 53.010625,0.09304263 50.270859,0 Z" />
  </g>
  <g
     inkscape:groupmode="layer"
     id="layer5"
     inkscape:label="Capa 4">
    <path
       id="text19732"
       style="font-style:normal;font-variant:normal;font-weight:normal;font-stretch:normal;font-size:111.934px;line-height:1.25;font-family:'Eras Demi ITC';-inkscape-font-specification:'Eras Demi ITC, Normal';font-variant-ligatures:normal;font-variant-caps:normal;font-variant-numeric:normal;font-variant-east-asian:normal;opacity:1;fill:#999999;fill-opacity:1;stroke:none;stroke-width:2.79837"
       d="M 50.270859,-3.6666667e-8 C 57.805215,31.494034 65.068643,63.243729 72.06075,95.249483 c 2.939538,-0.09304 5.579197,-0.139528 7.919413,-0.139528 2.226058,0 4.865716,0.04649 7.919413,0.139528 2.425832,-9.39704 4.994764,-18.631305 7.705989,-27.702703 2.026285,9.071398 3.881221,18.305663 5.565035,27.702703 1.22081,-0.03827 2.34611,-0.06378 3.45098,-0.0863 a 42.333333,42.333333 0 0 1 4.4721,-17.734319 c -0.78073,-3.384177 -1.83155,-8.156948 -3.1714,-14.417725 -1.71236,-8.001436 -2.88254,-13.67691 -3.5104,-17.02635 1.65528,-6.187159 3.82443,-13.909066 6.50713,-23.166544 C 111.63025,13.560767 113.89935,5.954559 115.72587,-3.6666664e-8 113.47126,0.09303996 111.47331,0.13952636 109.73241,0.13952636 c -1.51259,0 -3.51055,-0.046486 -5.99347,-0.139526396666664 C 101.74118,8.2340383 99.543851,16.561302 97.146557,24.981421 95.519822,16.747382 94.035975,8.4201179 92.694633,-3.6666667e-8 90.468574,0.09303996 88.341978,0.13952636 86.315693,0.13952636 c -1.826509,0 -3.95259,-0.046486 -6.378422,-0.139526396666667 C 81.449849,6.3732388 83.205354,14.188636 85.203099,23.446114 c 2.026285,9.257478 3.695676,17.142604 5.00848,23.655402 -0.941795,3.628559 -2.511753,9.257546 -4.709274,16.886825 C 83.333325,71.5711 81.70699,77.083871 80.6225,80.526349 L 75.613504,57.777869 63.627156,-3.6666667e-8 C 61.058627,0.09303996 58.832597,0.13952636 56.949008,0.13952636 c -1.712353,0 -3.938383,-0.046486 -6.678149,-0.139526396666667 z m 82.022051,0 L 129.55301,10.188008 121.20516,40.053887 111.61705,73.286481 A 42.333333,42.333333 0 0 1 127.65699,58.840335 L 137.47247,26.027868 145.52061,-3.6666654e-8 C 142.92352,0.09303996 140.71183,0.13952636 138.88531,0.13952636 c -1.65528,0 -3.85262,-0.046486 -6.5924,-0.139526396666667 z" />
  </g>
  <g
     inkscape:groupmode="layer"
     id="layer6"
     inkscape:label="Capa 5">
    <path
       id="text16091"
       style="font-style:normal;font-variant:normal;font-weight:normal;font-stretch:normal;font-size:111.934px;line-height:1.25;font-family:'Eras Demi ITC';-inkscape-font-specification:'Eras Demi ITC, Normal';font-variant-ligatures:normal;font-variant-caps:normal;font-variant-numeric:normal;font-variant-east-asian:normal;opacity:1;fill:#cccccc;fill-opacity:1;stroke:none;stroke-width:2.79839"
       d="M 50.270859,-3.6666667e-8 C 57.805215,31.494036 65.068643,63.243726 72.060747,95.249483 c 2.939538,-0.09304 5.579197,-0.139528 7.919413,-0.139528 2.226058,0 4.865716,0.04649 7.919415,0.139528 2.425833,-9.39704 4.994765,-18.631305 7.70599,-27.702703 1.408094,6.303838 2.731757,12.688115 3.974433,19.149219 a 42.333333,42.333333 0 0 1 7.241972,-19.511471 c -0.28915,-1.33595 -0.57839,-2.672013 -0.89969,-4.173389 -1.71236,-8.001439 -2.88254,-13.67691 -3.5104,-17.02635 1.65528,-6.187159 3.82443,-13.909066 6.50713,-23.166544 C 111.63025,13.560766 113.89935,5.9545592 115.72587,-3.6666664e-8 113.47126,0.09303996 111.47331,0.13952636 109.73241,0.13952636 c -1.51259,0 -3.51055,-0.046486 -5.99347,-0.139526396666664 C 101.74118,8.2340391 99.543851,16.561301 97.146557,24.981421 95.519822,16.747382 94.035975,8.4201192 92.694633,-3.6666667e-8 90.468574,0.09303996 88.341977,0.13952636 86.315691,0.13952636 84.489181,0.13952636 82.3631,0.09304036 79.937268,-3.6666667e-8 81.449846,6.3732393 83.205351,14.188635 85.203096,23.446114 c 2.026286,9.257478 3.695678,17.142604 5.008483,23.655402 -0.941793,3.628562 -2.511755,9.257546 -4.709277,16.886825 -2.16898,7.582759 -3.795315,13.09553 -4.879805,16.538008 L 75.613501,57.777869 63.627156,-3.6666667e-8 C 61.058627,0.09303996 58.832597,0.13952636 56.949008,0.13952636 c -1.712353,0 -3.938383,-0.046486 -6.678149,-0.139526396666667 z m 82.022051,0 L 129.55301,10.188008 l -8.34785,29.865879 -5.0173,17.390152 a 42.333333,42.333333 0 0 1 13.92688,-6.819223 L 137.47247,26.027868 145.52061,-3.6666664e-8 C 142.92352,0.09303996 140.71183,0.13952636 138.88531,0.13952636 c -1.65528,0 -3.85262,-0.046486 -6.5924,-0.139526396666667 z" />
  </g>
  <g
     inkscape:groupmode="layer"
     id="layer1"
     inkscape:label="Capa 6">
    <path
       id="text2388"
       style="font-style:normal;font-variant:normal;font-weight:normal;font-stretch:normal;font-size:111.934px;line-height:1.25;font-family:'Eras Demi ITC';-inkscape-font-specification:'Eras Demi ITC, Normal';font-variant-ligatures:normal;font-variant-caps:normal;font-variant-numeric:normal;font-variant-east-asian:normal;opacity:1;fill:#ffffff;fill-opacity:1;stroke:none;stroke-width:2.79839"
       d="m 50.270859,0 c 7.534407,31.494192 14.797752,63.244084 21.789896,95.249999 2.939554,-0.09304 5.579182,-0.139526 7.919408,-0.139526 2.226069,0 4.865699,0.04649 7.919411,0.139526 2.425849,-9.397085 4.994749,-18.63126 7.705989,-27.7027 0.319177,1.428908 0.632418,2.863519 0.943093,4.300511 a 42.333563,42.333563 0 0 1 8.277034,-13.999663 c -1.12195,-5.316648 -1.93107,-9.290849 -2.4133,-11.863358 1.65529,-6.187188 3.82441,-13.909534 6.50713,-23.167061 C 111.63077,13.560204 113.89985,5.9545889 115.72637,0 c -2.25462,0.09304046 -4.25255,0.13952637 -5.99346,0.13952637 -1.5126,0 -3.51052,-0.04648591 -5.99346,-0.13952637 -1.99777,8.2340801 -4.19559,16.560742 -6.592897,24.980904 C 95.519809,16.746823 94.035979,8.420161 92.694631,0 90.468557,0.09304046 88.341987,0.13952637 86.315691,0.13952637 84.489172,0.13952637 82.363119,0.09304046 79.937272,0 c 1.512585,6.3732708 3.268071,14.188589 5.265825,23.446114 2.026298,9.257526 3.695668,17.14257 5.008481,23.655402 -0.941801,3.628578 -2.51174,9.257509 -4.709274,16.886825 C 83.333314,71.57114 81.707,77.083853 80.6225,80.526349 L 75.613508,57.778385 63.627167,0 C 61.058624,0.09304046 58.832617,0.13952637 56.949015,0.13952637 55.23665,0.13952637 53.010644,0.09304046 50.270859,0 Z m 82.022561,0 -2.73991,10.187492 -8.34785,29.865876 -2.11875,7.343222 A 42.333563,42.333563 0 0 1 132.1265,43.901195 L 137.47297,26.027868 145.5211,0 c -2.5971,0.09304046 -4.80875,0.13952637 -6.63528,0.13952637 -1.6553,0 -3.85261,-0.04648591 -6.5924,-0.13952637 z" />
  </g>
</svg>
